<svg width="200" height="76" viewBox="0 0 200 76" fill="none" xmlns="http://www.w3.org/2000/svg">
<g clip-path="url(#clip0_152_2)">
<path d="M31.7065 55V18.0469H42.1265C45.9041 18.0469 49.1715 18.7004 51.9287 20.0073C54.7038 21.2964 56.8433 23.2926 58.3472 25.9961C59.869 28.6816 60.6299 32.137 60.6299 36.3623C60.6299 40.5876 59.8779 44.0788 58.374 46.8359C56.8701 49.5931 54.7664 51.6431 52.063 52.9858C49.3595 54.3286 46.1995 55 42.583 55H31.7065ZM39.9243 48.4473H41.6162C43.7467 48.4473 45.5998 48.0623 47.1753 47.2925C48.7687 46.5047 50.0041 45.2246 50.8813 43.4521C51.7765 41.6797 52.2241 39.3164 52.2241 36.3623C52.2241 33.4082 51.7765 31.0807 50.8813 29.3799C50.0041 27.6611 48.7687 26.4437 47.1753 25.7275C45.5998 24.9935 43.7467 24.6265 41.6162 24.6265H39.9243V48.4473ZM79.4824 55.6714C76.8506 55.6714 74.4604 55.0895 72.312 53.9258C70.1636 52.762 68.4538 51.0881 67.1826 48.9038C65.9294 46.7017 65.3027 44.0519 65.3027 40.9546C65.3027 37.9289 65.9383 35.3149 67.2095 33.1128C68.4806 30.9106 70.1278 29.2098 72.1509 28.0103C74.1919 26.8107 76.3314 26.2109 78.5693 26.2109C81.2191 26.2109 83.4212 26.8018 85.1758 27.9834C86.9482 29.1471 88.2731 30.7495 89.1504 32.7905C90.0456 34.8315 90.4932 37.1411 90.4932 39.7192C90.4932 40.4354 90.4574 41.1336 90.3857 41.814C90.3141 42.4764 90.2336 42.9867 90.144 43.3447H73.252C73.61 45.4036 74.4515 46.9434 75.7764 47.9639C77.1012 48.9665 78.7126 49.4678 80.6104 49.4678C81.7025 49.4678 82.7588 49.3156 83.7793 49.0112C84.8177 48.689 85.8472 48.2324 86.8677 47.6416L89.4727 52.5293C88.0225 53.5498 86.4201 54.3286 84.6655 54.8657C82.911 55.4028 81.1833 55.6714 79.4824 55.6714ZM73.1445 37.9468H83.5107C83.5107 36.3354 83.1348 35.0195 82.3828 33.999C81.6309 32.9606 80.4224 32.4414 78.7573 32.4414C77.3966 32.4414 76.1882 32.9069 75.1318 33.8379C74.0934 34.7689 73.431 36.1385 73.1445 37.9468ZM96.2939 55V26.8823H102.981L103.599 30.5347H103.76C104.924 29.3709 106.177 28.3594 107.52 27.5C108.88 26.6406 110.483 26.2109 112.327 26.2109C114.296 26.2109 115.907 26.6317 117.161 27.4731C118.414 28.3146 119.372 29.4784 120.034 30.9644C121.287 29.6574 122.612 28.5384 124.009 27.6074C125.423 26.6764 127.052 26.2109 128.896 26.2109C131.922 26.2109 134.142 27.2225 135.557 29.2456C136.971 31.2687 137.678 34.0348 137.678 37.5439V55H129.514V38.5645C129.514 36.5234 129.219 35.118 128.628 34.3481C128.055 33.5783 127.16 33.1934 125.942 33.1934C124.492 33.1934 122.863 34.1333 121.055 36.0132V55H112.891V38.5645C112.891 36.5234 112.604 35.118 112.031 34.3481C111.458 33.5783 110.572 33.1934 109.373 33.1934C108.674 33.1934 107.904 33.4261 107.063 33.8916C106.239 34.3571 105.389 35.0643 104.512 36.0132V55H96.2939ZM156.853 55.6714C154.49 55.6714 152.27 55.0985 150.193 53.9526C148.116 52.7889 146.424 51.1149 145.117 48.9307C143.828 46.7285 143.184 44.0698 143.184 40.9546C143.184 37.8573 143.828 35.2075 145.117 33.0054C146.424 30.8032 148.116 29.1203 150.193 27.9565C152.27 26.7928 154.49 26.2109 156.853 26.2109C159.234 26.2109 161.463 26.7928 163.54 27.9565C165.617 29.1203 167.3 30.8032 168.589 33.0054C169.878 35.2075 170.522 37.8573 170.522 40.9546C170.522 44.0698 169.878 46.7285 168.589 48.9307C167.3 51.1149 165.617 52.7889 163.54 53.9526C161.463 55.0985 159.234 55.6714 156.853 55.6714ZM156.853 49.1187C158.608 49.1187 159.924 48.3757 160.801 46.8896C161.696 45.4036 162.144 43.4253 162.144 40.9546C162.144 38.4839 161.696 36.5145 160.801 35.0464C159.924 33.5783 158.608 32.8442 156.853 32.8442C155.098 32.8442 153.783 33.5783 152.905 35.0464C152.028 36.5145 151.589 38.4839 151.589 40.9546C151.589 43.4253 152.028 45.4036 152.905 46.8896C153.783 48.3757 155.098 49.1187 156.853 49.1187Z" fill="#0000FF"/>
</g>
<defs>
<clipPath id="clip0_152_2">
<rect width="200" height="75.2941" fill="white"/>
</clipPath>
</defs>
</svg>
